<?xml version="1.0" standalone="no"?>
<!DOCTYPE svg PUBLIC "-//W3C//DTD SVG 20010904//EN"
 "http://www.w3.org/TR/2001/REC-SVG-20010904/DTD/svg10.dtd">
<svg version="1.0" xmlns="http://www.w3.org/2000/svg"
 width="260.000000pt" height="260.000000pt" viewBox="0 0 260.000000 260.000000"
 preserveAspectRatio="xMidYMid meet">
<metadata>
Created by potrace 1.11, written by Peter Selinger 2001-2013
</metadata>
<g transform="translate(0.000000,260.000000) scale(0.100000,-0.100000)"
fill="#000000" stroke="none">
<path d="M490 1781 c-75 -20 -84 -37 -37 -66 l32 -20 3 -108 c1 -59 1 -107 -1
-107 -3 0 -22 7 -43 16 -80 33 -180 -5 -239 -90 -42 -63 -59 -127 -53 -206 5
-68 40 -129 97 -167 63 -43 164 -39 206 7 25 27 32 25 40 -11 7 -29 9 -31 43
-24 82 15 137 39 137 60 0 17 -6 19 -41 17 -36 -3 -42 0 -48 20 -3 13 -6 175
-6 361 0 263 -3 337 -12 336 -7 0 -42 -9 -78 -18z m-69 -336 c57 -30 69 -66
69 -202 0 -119 0 -122 -26 -142 -16 -13 -41 -21 -63 -21 -109 0 -178 142 -137
283 26 88 84 119 157 82z"/>
<path d="M1731 1781 c-36 -9 -66 -21 -68 -27 -2 -6 12 -23 32 -38 l35 -27 0
-289 c0 -158 -3 -296 -6 -305 -4 -9 -24 -25 -46 -36 -32 -17 -37 -23 -28 -35
17 -20 222 -20 239 0 13 15 9 19 -34 41 -19 10 -20 22 -23 169 l-3 157 35 35
c56 56 131 42 162 -32 16 -37 20 -289 5 -312 -4 -8 -19 -19 -32 -26 -13 -6
-24 -18 -24 -26 0 -12 21 -15 120 -15 99 0 120 3 120 15 0 8 -10 19 -21 25
-51 25 -51 28 -56 188 -5 164 -13 196 -64 236 -51 40 -151 36 -216 -10 l-28
-20 -2 173 c-3 145 -5 173 -18 175 -8 0 -44 -6 -79 -16z"/>
<path d="M1340 1515 c-36 -29 -65 -60 -65 -67 0 -7 14 -14 33 -16 l32 -3 0
-165 c0 -194 8 -226 67 -250 49 -21 104 -13 148 21 41 31 49 72 13 61 -64 -19
-93 -18 -113 4 -17 18 -20 40 -23 150 -3 71 -1 141 2 155 6 24 10 25 75 25 72
0 81 6 81 50 0 17 -9 20 -77 22 l-78 3 -3 33 c-2 17 -9 32 -15 32 -7 0 -41
-25 -77 -55z"/>
<path d="M877 1495 c-183 -67 -226 -310 -77 -438 131 -112 339 -43 398 132 17
50 14 130 -7 176 -50 110 -199 172 -314 130z m143 -61 c44 -37 72 -98 77 -169
13 -161 -85 -261 -188 -192 -72 47 -111 198 -75 292 35 92 121 123 186 69z"/>
<path d="M2326 1129 c-26 -20 -35 -61 -18 -85 10 -15 47 -34 67 -34 25 0 65
46 65 75 0 32 -33 65 -64 65 -13 0 -35 -9 -50 -21z"/>
</g>
</svg>
